<?xml version="1.0" standalone="no"?>
<!DOCTYPE svg PUBLIC "-//W3C//DTD SVG 1.1//EN" "http://www.w3.org/Graphics/SVG/1.1/DTD/svg11.dtd">
<svg xmlns="https://www.w3.org/2000/svg">
<metadata>Generated by Fontastic.me</metadata>
<defs>
<font id="sdp" horiz-adv-x="512">
<font-face font-family="sdp" units-per-em="512" ascent="480" descent="-32"/>
<missing-glyph horiz-adv-x="512" />

<glyph unicode="&#97;" d="M285 29l180 180-30 29-158-158 0 432-42 0 0-432-158 158-30-29 209-209z"/>
<glyph unicode="&#98;" d="M29 227l180-180 29 30-158 158 432 0 0 42-432 0 158 158-29 30-209-209z"/>
<glyph unicode="&#99;" d="M483 285l-180 180-29-30 158-158-432 0 0-42 432 0-158-158 29-30 209 209z"/>
<glyph unicode="&#100;" d="M219 483l-180-180 30-29 158 158 0-432 42 0 0 432 158-158 30 29-209 209z"/>
<glyph unicode="&#101;" d="M512 0l-512 0 0 512 512 0z m-490 22l468 0 0 468-468 0z"/>
<glyph unicode="&#102;" d="M512 0l-512 0 0 512 512 0z m-490 22l468 0 0 468-468 0z m67 401l334 0 0-334-334 0z"/>
<glyph unicode="&#103;" d="M19 512l0-417 145 0 94-95 95 95 140 0 0 417z m446-389l-123 0-9-9-75-75-84 84-127 0 0 361 418 0z m-349 292l278 0 0-28-278 0z m2-97l278 0 0-28-278 0z m-2-99l278 0 0-28-278 0z"/>
<glyph unicode="&#104;" d="M0 351l261-248 251 248-58 58-196-193-202 193z"/>
<glyph unicode="&#105;" d="M233 512c-107 0-193-86-193-193 0-98 72-177 165-191l0-128 37 0 0 475 128 0 0-475 37 0 0 475 65 0 0 37z m-156-193c0 77 56 140 128 153l0-304c-72 11-128 76-128 151z"/>
<glyph unicode="&#106;" d="M15 306l164 0 0-304 42 0 0 508-206 0z m276 204l0-204 164 0 0-304 42 0 0 508z"/>
<glyph unicode="&#107;" d="M184 368l-30 0 0-47-47 0 0-30 47 0 0-47 30 0 0 47 46 0 0 30-46 0z m174 0l-30 0 0-47-46 0 0-30 46 0 0-47 30 0 0 47 47 0 0 30-47 0z m-102 144c-142 0-256-114-256-256 0-142 114-256 256-256 142 0 256 114 256 256 0 142-114 256-256 256z m0-482c-126 0-226 103-226 226 0 123 103 226 226 226 123 0 226-103 226-226 0-123-100-226-226-226z m0 61c-56 0-100 44-100 100l30 0c0-40 33-72 72-72 40 0 73 32 73 72l30 0c-5-54-51-100-105-100z"/>
<glyph unicode="&#108;" d="M512 223l0 66-67 0c-5 30-17 55-33 79l47 46-45 45-46-47c-24 16-49 28-79 33l0 67-66 0 0-67c-30-5-55-17-79-33l-46 46-47-44 47-46c-16-24-28-49-33-80l-65 0 0-65 67 0c5-30 17-55 33-79l-47-46 45-45 46 47c24-16 49-28 79-33l0-67 66 0 0 67c30 5 55 17 79 33l46-47 45 45-47 46c16 24 28 49 33 79z m-256-95c-70 0-128 58-128 128 0 70 58 128 128 128 70 0 128-58 128-128 0-70-58-128-128-128z"/>
<glyph unicode="&#109;" d="M256 1c-4 0-6 0-8 2l-207 114c-6 2-10 10-10 16l0 243c0 6 4 13 10 17l207 116c6 4 12 4 18 0l206-116c6-4 10-11 10-17l0-245c0-6-4-12-10-16l-206-112c-4-2-6-2-10-2z m-194 139l194-109 194 107 0 232-194 110-194-110z"/>
<glyph unicode="&#111;" d="M512 19l-512 0 0 474 512 0z m-475 37l438 0 0 400-438 0z m-4 37l-26 28 144 135 79-74 117 172 160-154-25-25-131 121-114-170-86 79z m163 254c0-26-21-47-47-47-26 0-47 21-47 47 0 25 21 46 47 46 26 0 47-21 47-46z"/>
<glyph unicode="&#112;" d="M351 512l-248-261 248-251 58 58-193 196 193 202z"/>
<glyph unicode="&#113;" d="M440 328c0 103-84 184-184 184-100 0-184-81-184-184 0-39 12-74 33-105l151-223 151 223c21 31 33 68 33 105z m-184-114c-44 0-81 26-100 61-9 16-14 35-14 53 0 63 51 114 114 114 63 0 114-51 114-114 0-18-4-37-14-53-19-35-56-61-100-61z"/>
<glyph unicode="&#114;" d="M512 279l-233 0 0 233-46 0 0-233-233 0 0-46 233 0 0-233 46 0 0 233 233 0z"/>
<glyph unicode="&#115;" d="M326 326l186 0 0-140-186 0 0-186-140 0 0 186-186 0 0 140 186 0 0 186 140 0z"/>
<glyph unicode="&#116;" d="M466 510l0-142c-24 81-124 137-219 137-135 0-247-109-247-247 0-137 112-246 247-246 100 0 188 58 228 149l-47 21c-30-72-100-119-179-119-107 0-196 89-196 196 0 107 89 207 196 207 84 0 156-49 184-119l-130 0 0-47 209 0 0 210z"/>
<glyph unicode="&#117;" d="M483 326l-483 0 64-64-64-64 480 0c30 0 32-12 32-12l0 121c0 19-10 19-29 19z"/>
<glyph unicode="&#119;" d="M510 76l-127 127c19 30 28 67 28 102 0 55-21 106-60 145-39 40-90 60-143 60-56 0-107-20-146-60-81-81-81-210 0-289 39-39 90-60 146-60 37 0 71 9 101 28l128-127z m-407 127c-57 58-57 150 0 206 28 27 65 41 104 41 40 0 77-16 105-41 27-28 41-65 41-104 0-40-16-77-41-104-28-28-65-42-105-42-39 0-76 16-104 44z"/>
<glyph unicode="&#120;" d="M512 272l-216 0 153 154-23 23-154-153 0 216-32 0 0-216-154 153-23-23 153-154-216 0 0-32 216 0-153-154 23-23 154 153 0-216 32 0 0 216 154-153 23 23-153 154 216 0z"/>
<glyph unicode="&#121;" d="M512 161l-261 248-251-248 58-58 196 193 202-193z"/>
<glyph unicode="&#65;" d="M0 270l27 27 189-189-27-27z m485 162l27-27-324-325-27 27z"/>
<glyph unicode="&#66;" d="M256 507c-139 0-251-112-251-251 0-139 112-251 251-251 139 0 251 112 251 251 2 139-112 251-251 251z m0-333c-45 0-82 37-82 82 0 45 37 82 82 82 45 0 82-37 82-82 0-45-37-82-82-82z"/>
<glyph unicode="&#67;" d="M256 509c-141 0-253-114-253-253 0-139 114-253 253-253 139 0 253 114 253 253 0 139-114 253-253 253z m0-451c-110 0-198 88-198 198 0 109 88 198 198 198 109 0 198-88 198-198 0-110-89-198-198-198z m19 340l-38 0 0-150 93-94 27 27-82 83z"/>
<glyph unicode="&#68;" d="M256 509c-141 0-253-112-253-253 0-141 114-253 253-253 141 0 253 114 253 253 0 141-112 253-253 253z m32-429l-64 0 0 96 64 0z m0 128l-64 0 0 224 64 0z"/>
<glyph unicode="&#69;" d="M182 512l330 0 0-74-330 0z m0-219l330 0 0-74-330 0z m0-219l330 0 0-74-330 0z m-182 219l110 0 0-74-110 0z m0 219l110 0 0-74-110 0z m0-438l110 0 0-74-110 0z"/>
<glyph unicode="&#70;" d="M0 512l182 0 0-182-182 0z m330 0l182 0 0-182-182 0z m0-330l182 0 0-182-182 0z m-330 0l182 0 0-182-182 0z"/>
<glyph unicode="&#71;" d="M448 464l64 0 0-432-64 0z m-144 0l64 0 0-432-64 0z m-160 0l64 0 0-432-64 0z m-144 0l64 0 0-432-64 0z"/>
<glyph unicode="&#110;" d="M256 1c-4 0-6 0-8 2l-207 114c-6 2-10 10-10 16l0 243c0 6 4 13 10 17l207 116c6 4 12 4 18 0l206-116c6-4 10-11 10-17l0-245c0-6-4-12-10-16l-206-112c-4-2-6-2-10-2z m-194 139l194-109 194 107 0 232-194 110-194-110z m43 200c0 0 0 2 2 2l147 83 2 0 147-83 2-2 0-176c0 0 0-2-2-2l-147-82-2 0-147 82-2 2z"/>
<glyph unicode="&#72;" d="M64 363c0 2 0 3 0 3l190 104c0 0 2 0 4 0l190-104c0 0 2-1 2-1l0-221c0-2 0-2-2-2l-190-100c0 0-2 0-4 0l-190 102c0 0 0 2 0 3z m192-361l-2 0-1 1-223 119c-1 1-3 3-3 6l0 254c0 4 2 5 3 7l223 121 1 0c2 0 4 0 4-1l220-122c2-1 4-3 4-6l0-256c0-3-2-5-4-7l-222-118z m-216 129l216-117 216 116 0 249-216 119-216-119z"/>
<glyph unicode="&#73;" d="M512 19l-512 0 0 474 512 0z m-475 37l437 0 0 400-437 0z m171 258l98-58-98-58 0 116m-38 64l0-245 209 123z"/>
<glyph unicode="&#74;" d="M502 474l-65 0 0 24c0 4-5 9-10 9l-101 0c-4 0-9-5-9-9l0-24-259 0c-5 0-10-4-10-8l0-45c0-5 5-10 10-10l64 0 0-57-66-20c0 0 0 0-2 0 0 0-1 0-1-1 0 0 0-2-2-2 0 0 0-1-1-1l-26-66c-2-5 0-10 5-11l176-71c1 0 1 0 3 0 3 0 6 2 8 7l26 65c0 0 0 2 0 2 0 0 0 2 0 2 0 0 0 1 0 1 0 0 0 2 0 2 0 0 0 1-2 1 0 0 0 2-2 2l-100 90 0 57 176 0 0-38c0-5 4-10 9-10l18 0 0-350c0-5 5-10 9-10l44 0c4 0 9 5 9 10l0 352 21 0c5 0 10 5 10 9l0 37 65 0c5 0 10 5 10 10l0 45c1 4-2 8-7 8z m-372-138l60-54-104 41z m75-136l-160 62 19 50 160-62z m-138 229l0 27 250 0 0-27z m320-407l-25 0 0 343 25 0z m31 360l-84 0 0 108 84 0z m75 47l-58 0 0 27 58 0z m-240-287l-243 0c-5 0-10-4-10-9l0-120c0-5 5-10 10-10l241 0c5 0 10 5 10 10l0 120c1 5-3 9-8 9z m-10-120l-224 0 0 103 224 0z m-190 66l78 0c5 0 10 5 10 10 0 4-5 9-10 9l-78 0c-5 0-10-5-10-9 2-7 5-10 10-10z m0-24l81 0c5 0 10 5 10 10 0 4-5 9-10 9l-81 0c-5 0-10-5-10-9 2-5 5-10 10-10z"/>
<glyph unicode="&#75;" d="M334 106c52 57 95 166 95 233 0 96-77 173-173 173-96 0-173-77-173-173 0-65 39-173 95-232l0-75 14 0 0-32 128 0 0 32 16 0 0 74z m-112 160c7-8 18-15 29-15 11 0 23 5 29 15 6-8 18-15 29-15 6 0 11 2 16 3l-21-136-98 0-25 136c5-1 9-3 14-3 10 0 21 5 27 15z m-30-208l40-10-40 0z m109-10l-109 26 0 8 126-32 0-2z m-109 51l0 3 26 0 100-25 0-8z m96 2l30 0 0-8z m-32 395c86 0 157-70 157-157 0-62-42-166-90-221l-3 0 22 162c0 2 0 5 2 6l0 2c0 0 0 0 0 2l-8 0-8-2-2-6c-3-8-9-15-19-15-11 0-21 10-21 21l-16 0c0-11-9-21-20-21-12 0-21 10-21 21l-16 0c0-11-10-21-21-21-8 0-16 5-19 13l-2 10-6-2-8 0c0 0 0-2 0-2 0-3 1-6 1-9l31-159-2 0c-53 56-89 159-89 221 1 87 72 157 158 157z m46-480l-96 0 0 13 96 0z"/>
<glyph unicode="&#76;" d="M275 510c-141 16-264-94-254-240 0-9 8-14 14-16 2-1 5-3 8-4 5-2 10-2 16-4 13-75 31-147 58-219 0-6 3-13 11-14 85-13 171-19 256-5 6 2 10 5 11 10 3 1 5 4 7 8 28 72 43 147 48 224 6 1 14 4 20 8 4 1 5 3 7 4 6 2 11 7 11 15 6 126-93 221-213 233z m98-468c-75-13-152-8-227 3-24 64-40 129-53 195 9-2 21-3 30-5 0 0 0 0 0-1 8-37 18-74 29-109 6-21 38-11 32 8-10 32-18 64-26 97 18-1 36-3 53-4 2-36 5-76 16-108 7-19 39-11 32 8-9 31-13 66-14 98 21 0 41 0 62 2 3-36 2-71-3-104-3-21 30-21 34 0 4 35 6 72 1 107 26 3 53 8 79 14-5-70-20-137-45-201z m-320 241c-2 122 104 211 225 194 98-13 178-88 181-187-128-48-275-39-406-7z m69 98c-7-11-12-23-18-34-11-17 18-35 29-16 6 10 11 23 17 32 10 19-17 35-28 18z m124 9c5 8 2 18-6 23-8 6-18 13-26 17-8 4-17 2-22-6-5-8-2-18 6-22 8-5 18-12 26-18 6-5 18-2 22 6z m100 18c-8 5-18 2-23-6-6-8-11-18-17-26-5-8-2-19 6-22 8-5 18-2 22 6 7 8 12 18 18 26 5 6 0 17-6 22z m54-69c-2 0-3 2-5 2-3 1-6 3-9 6-8 5-18 2-23-6-5-8-1-18 7-23 8-4 16-9 25-12 8-4 18 3 21 11 3 9-3 17-11 21-2 0-5 1-5 1z m-154-11l-6-6c-6-7-6-18 0-24 6-7 18-7 24 0l6 6c7 6 7 18 0 24-6 6-17 6-24 0z"/>
<glyph unicode="&#77;" d="M298 512l-84 0c-36 0-67-30-67-67l-1-93c0-37 28-67 65-66l2 53c-11 5-18 18-16 31l0 59c0 19 16 33 33 33l50 0c19 0 34-14 34-33l0-59c0-13-7-26-18-32l0-52c37 0 67 31 67 68l2 91c0 37-31 67-67 67z m-5-338c9-6 17-19 16-32l0-54c0-19-16-34-35-34l-52 0c-19 0-33 15-33 34l0 54c0 13 6 26 17 32l0 53c-36 0-68-30-68-69l-2-88c0-36 30-67 67-67l85 0c37 0 69 31 69 69l1 88c0 37-30 67-67 67z m-40-16c13 0 22 10 22 23l0 153c0 13-9 23-22 23-13 0-23-10-23-23l0-153c-1-13 10-23 23-23z"/>
<glyph unicode="&#78;" d="M382 408c40 0 72-32 72-72 0-22-9-37-17-46l-181-181-168 166-2 2-3 1c-17 15-27 34-27 56 0 40 32 72 72 72 19 0 34-8 43-16l45-44 38-39 39 39 45 44c11 10 25 18 44 18m0 54c-30 0-57-11-80-28l-46-47-48 47c-22 17-50 28-80 28-70 0-126-56-126-126 0-40 19-75 48-99l206-207 221 221c19 23 32 51 32 83 0 72-56 128-127 128z"/>
<glyph unicode="&#79;" d="M243 54c-59 4-104 29-134 61l29 37c22-26 59-50 105-54l0 142c-59 16-121 37-121 109 0 61 51 104 121 107l0 54 35 0 0-54c48-5 87-24 116-53l-29-35c-24 26-53 40-87 45l0-127c61-17 125-40 125-115 0-53-33-107-125-113l0-53-35 0z m0 239l0 120c-41-3-72-27-72-61 0-34 32-46 72-59z m35-63l0-132c56 6 74 38 74 67 0 37-32 53-74 65z"/>
<glyph unicode="&#80;" d="M173 53l53 302 80-14-53-303z m67 349c-8 11-10 22-8 35 2 13 10 24 19 30 11 8 23 10 35 8 13-1 24-9 32-19 8-11 10-22 8-35-1-13-9-24-19-31-9-6-22-9-37-8-12 2-22 8-30 20z"/>
<glyph unicode="&#81;" d="M466 402l-56 56c-26 24-66 25-92 0l-62-61c-26-24-26-64 0-90l35 35c-3 12 2 24 10 32l40 39c13 13 33 13 45 0l33-34c13-13 13-32 0-45l-40-38c-8-8-22-13-33-10l-36-35c26-24 66-25 92 0l62 61c27 24 27 64 2 90z m-231-226c3-11-1-24-11-34l-37-36c-13-13-33-13-46 0l-35 33c-13 13-13 34 0 45l38 38c10 10 22 13 34 10l36 35c-25 26-67 26-92 0l-61-59c-26-26-26-66 0-91l57-58c26-25 68-25 93 0l61 59c26 26 26 66 0 92z m-40 16c8-8 23-8 31 0l104 102c8 8 8 23 0 31-8 8-23 8-31 0l-104-101c-8-10-8-22 0-32z"/>
<glyph unicode="&#82;" d="M107 467l350-349-50-50-350 349z m184-128c-3 11 2 24 10 32l40 39c13 12 32 12 45 0l33-34c13-13 13-32 0-45l-40-38c-8-8-22-13-33-10l-10-9 40-40c10 3 18 8 24 14l62 61c26 24 26 64 0 88l-56 56c-25 24-65 24-89 0l-61-59c-6-7-11-15-14-23l40-40z m-56-163c3-11-1-24-9-32l-37-37c-13-13-34-13-47 0l-33 34c-13 13-13 32 0 45l37 36c9 8 22 13 33 10l16 16-37 37c-12-2-25-8-35-18l-61-59c-25-26-25-66 0-90l58-56c26-25 66-25 91 0l61 60c10 9 16 20 18 33l-39 37z"/>
<glyph unicode="&#83;" d="M64 35l0 442 232 0c21 0 38-3 54-10 16-6 31-14 40-25 10-10 18-23 24-36 5-12 8-27 8-41 0-27-6-48-20-67-15-18-32-29-55-34 24-3 43-16 59-37 16-21 24-45 24-72 0-35-11-64-33-86-23-23-55-34-95-34z m94 266l119 0c16 0 29 5 37 13 9 8 14 19 14 33 0 15-5 26-14 34-10 8-23 13-37 13l-119 0z m0-183l122 0c18 0 32 5 42 13 9 10 14 21 14 37 0 14-5 26-14 35-10 10-24 15-42 15l-122 0z"/>
<glyph unicode="&#84;" d="M3 461l0-410 504 0 0 410z m474-378l-442 0 0 346 442 0z m-127 267c0-25 21-48 48-48 28 0 48 21 48 48 0 28-20 48-48 48-27 0-48-22-48-48z m95-236l-378 0 95 252 126-158 62 48z"/>
<glyph unicode="&#122;" d="M509 453l-56 56-197-197-197 197-56-56 197-197-197-196 56-57 197 197 197-197 56 57-197 196z"/>
<glyph unicode="&#85;" d="M451 93l-160 160 160 161-32 32-160-160-161 160-32-32 160-161-160-160 32-32 161 160 160-160z"/>
<glyph unicode="&#86;" d="M379 210l-379 0 46 46-46 46 512 0-46-46 46-46z"/>
<glyph unicode="&#87;" d="M14 512l0-417 148 0 97-95 97 95 142 0 0 417z"/>
<glyph unicode="&#88;" d="M273 379l0-115 69 0 0-126 23 0 23 109 0 132z m-149 0l0-115 69 0 0-126 23 0 24 109 0 132z m386-356l-508 0 0 471 508 0z m-471 37l434 0 0 397-434 0z"/>
<glyph unicode="&#118;" d="M161 0l248 261-248 251-58-58 193-196-193-202z"/>
<glyph unicode="&#89;" d="M309 258c0-29-23-52-52-52-29 0-52 23-52 52 0 29 23 52 52 52 29 0 52-23 52-52z m-22-158c6 1 13 3 19 5 3 1 5 2 8 3 5 1 9 3 13 5 4 2 7 4 11 6 4 2 7 5 11 7 2 1 3 2 5 3l152 129-137 117-14 11-1 1c-1 1-3 2-5 3-3 2-7 5-11 7-3 2-7 4-11 6-4 2-8 4-13 6-3 1-5 2-8 3-6 2-13 3-19 5-3 0-5 0-7 1-7 1-14 1-22 1 0 0 0 0-1 0 0 0 0 0 0 0 0 0 0 0-1 0 0 0 0 0-1 0-7 0-14 0-21-1-2-1-5-1-7-1-7-2-13-3-20-5-2-1-5-2-7-3-5-2-9-4-14-6-3-2-7-4-10-6-4-2-8-5-12-7-1-1-3-2-5-3l0-1-14-11-137-117 152-129c2-1 4-2 5-3 4-3 8-5 11-7 4-2 7-4 11-6 4-2 9-4 13-6 3-1 5-2 8-3 6-2 13-3 19-4 3-1 5-1 7-1 7-1 14-2 22-2 0 0 0 0 1 0 0 0 0 0 0 0 0 0 0 0 1 0 0 0 0 0 1 0 7 0 14 1 21 2 2 0 5 0 7 1z m14 47c-4-2-9-3-13-4-3-1-6-2-9-2-2-1-4-1-6-1-5-1-9-1-14-1-1 0-1 0-2 0 0 0-1 0-2 0-4 0-9 0-13 1-3 0-5 0-7 1-3 0-6 1-9 2-4 1-8 2-12 4-2 1-3 1-4 2-42 18-72 60-72 109 0 49 30 91 72 109 1 1 2 2 4 2 4 2 8 3 12 4 3 1 6 2 9 2 2 1 4 1 7 1 4 1 9 1 13 2 1 0 2 0 2 0 1 0 1 0 2 0 5-1 9-1 14-2 2 0 4 0 6-1 3 0 6-1 10-2 4-1 8-2 12-4 1 0 2-1 4-2 42-18 71-60 71-109 0-49-29-91-72-109-1-1-2-1-3-2z"/>
<glyph unicode="&#90;" d="M31 506l0-405 128 0 97-97 97 97 128 0 0 405z m50-355l0 305 350 0 0-305-98 0-77-77-77 77z m50 233l250 0 0-58-250 0z m0-101l250 0 0-57-250 0z"/>
<glyph unicode="&#48;" d="M411 499l-188 0c-9 0-19-1-28-2-86-13-153-88-153-178 0-90 67-165 153-178l0-126 61 0 0 424 94 0 0-424 61 0 0 424 57 0 0 60z m-216-302c-56 13-98 62-98 122 0 59 42 109 98 122z"/>
<glyph unicode="&#49;" d="M182 340l54 0 0-230-54 0z m94 0l54 0 0-230-54 0z m101-268l-243 0 0 269-54 0 0-324 350 0 0 324-53 0z m-41 368l0 55-160 0 0-55-136 0 0-53 432 0 0 53z"/>
</font>
</defs>
</svg>
